Coordinates
version=1
nRows=19
nColumns=33
inDegrees=yes

Units are S.I. units (second, meters, Newtons, ...)
Angles are in degrees.

endheader
time	ground_thorax_rot_x	ground_thorax_rot_y	ground_thorax_rot_z	ground_thorax_tx	ground_thorax_ty	ground_thorax_tz	clav_prot_r	clav_elev_r	scapula_abduction_r	scapula_elevation_r	scapula_upward_rot_r	scapula_winging_r	shoulder_elv_r	plane_of_elev_r	axial_rot_r	elbow_flexion_r	pro_sup_r	wrist_flex_r	wrist_dev_r	clav_prot_l	clav_elev_l	scapula_abduction_l	scapula_elevation_l	scapula_upward_rot_l	scapula_winging_l	shoulder_elv_l	plane_of_elev_l	axial_rot_l	elbow_flexion_l	pro_sup_l	wrist_flex_l	wrist_dev_l
      4.92000000	     -2.26610825	      3.34669916	     10.50545310	     -0.09853044	      1.03058130	      0.01205610	     10.93947488	    -11.59483053	     20.64655662	     -5.59250352	      3.15712599	     -4.43597748	    -26.98736635	    -72.44107624	    110.41144542	    -75.67649776	   -165.97281916	     31.52641025	    -10.64741446	     14.17594824	     -3.71553116	    -19.80218666	    -17.44396086	    -34.01974174	      2.44651723	     61.87143523	    -23.10670745	      6.45770459	     65.64337573	      6.99327944	     14.18430963	    -15.59405886
      4.93000000	     -2.19077729	      3.36876011	     10.73695146	     -0.09880594	      1.03133553	      0.01208320	     10.66152912	    -11.60253107	     19.75162678	     -5.26528022	      2.30655150	     -4.05410646	    -28.64988825	    -73.02127048	    108.91816082	    -75.66723135	   -163.66408852	     34.16423960	    -12.60386055	     13.58549634	     -3.48881871	    -18.76047253	    -17.72024674	    -34.07149227	      1.92914117	     62.04331241	    -24.76817113	      5.21494266	     66.64083705	      8.02609557	     12.40099735	    -17.64272975
      4.94000000	     -2.07974539	      3.16644474	     10.68034746	     -0.09932041	      1.03112791	      0.01197947	     10.43788625	    -11.13580591	     19.18440570	     -4.69697897	      1.93289503	     -4.02441480	    -29.40767314	    -73.59384723	    109.02408961	    -76.07732433	   -163.33843863	     34.50163984	    -12.73849629	     13.33079929	     -3.00285308	    -18.36636886	    -18.44577242	    -34.59243532	      1.63132660	     61.68035601	    -25.72036495	      5.40920150	     67.90699495	      8.03763434	     12.19015052	    -18.08387897
      4.95000000	     -1.97810276	      3.21026161	     10.78737100	     -0.09922056	      1.03189250	      0.01199485	     10.01467300	    -10.95596494	     18.31554307	     -4.41619859	      1.62877211	     -3.74142318	    -31.63788934	    -74.15636351	    107.27032794	    -75.64258136	   -160.24957979	     37.24149636	    -15.01683110	     12.61795460	     -2.61866935	    -17.02083539	    -18.67668663	    -34.21476645	      1.04213390	     61.68287360	    -27.26799345	      3.99518680	     68.37784969	     10.10630081	      9.80065537	    -21.04811224
      4.96000000	     -1.75250094	      2.87064779	     10.72830358	     -0.09915026	      1.03227605	      0.01189580	      9.87209343	    -10.54321173	     18.20020111	     -4.15767764	      1.90331452	     -3.87649121	    -34.53978586	    -74.76197783	    105.19807064	    -75.46245106	   -157.58373453	     38.34145107	    -16.71025779	     11.93356338	     -2.20027728	    -15.73026296	    -18.97560677	    -33.91337367	      0.46986096	     61.14652663	    -28.71910181	      3.50928605	     68.92244543	     11.86868034	      8.05513392	    -23.43697180
      4.97000000	     -1.70788303	      2.75277773	     10.62350155	     -0.09973867	      1.03200798	      0.01177306	      9.78289353	    -10.15081856	     17.78785106	     -3.59898227	      1.40018927	     -3.86031710	    -35.17838115	    -75.02588279	    105.22627038	    -75.48005683	   -157.35675572	     38.51469309	    -16.78662861	     11.76584046	     -1.78562901	    -15.47086606	    -19.62246419	    -34.40271819	      0.23437072	     60.91111480	    -29.68419519	      3.49786471	     69.89255478	     11.91166063	      7.93544288	    -23.77987675
      4.98000000	     -1.61866486	      2.70904569	     10.75502133	     -0.09988670	      1.03246567	      0.01187341	      9.63528117	     -9.91025810	     17.42416686	     -3.29327180	      1.18238532	     -3.80414866	    -37.77993928	    -75.19133852	    102.90746615	    -74.77603160	   -154.24772685	     41.06095179	    -18.69294590	     11.21366931	     -1.36035480	    -14.41079462	    -19.96739946	    -34.18958133	     -0.24004874	     60.92527514	    -31.06283414	      2.07099650	     70.16005254	     14.41037499	      5.67376811	    -24.99999983
      4.99000000	     -1.55114855	      2.47979539	     10.76412840	     -0.10030092	      1.03234340	      0.01177460	      9.49965611	     -9.54757154	     17.00351641	     -2.81644936	      0.81924090	     -3.76639224	    -38.54017055	    -75.55182457	    102.93090487	    -74.55896860	   -153.96415665	     41.16247838	    -18.78194189	     11.01630118	     -1.02294170	    -14.10949278	    -20.56988903	    -34.73213114	     -0.50834018	     60.54143517	    -32.06820298	      2.15362396	     70.73416282	     14.51615642	      5.47071677	    -24.99999983
      5.00000000	     -1.48815316	      2.49741782	     10.66890110	     -0.10025892	      1.03279973	      0.01179397	      9.28375944	     -9.24672705	     16.77918535	     -2.68274694	      1.14838960	     -3.80590094	    -41.76937909	    -75.55753297	    100.16768032	    -73.50986270	   -150.49351149	     43.32861716	    -20.81214362	     10.49273022	     -0.59335875	    -13.05242883	    -20.82335144	    -34.31539739	     -0.94196915	     60.45112342	    -33.21474525	      0.77450588	     70.82555410	     17.45618967	      2.59237910	    -24.99999983
      5.01000000	     -1.36629775	      2.29832886	     10.75545357	     -0.10068307	      1.03265708	      0.01177847	      9.20441236	     -8.91585708	     16.40370620	     -2.19243515	      0.68684875	     -3.76075758	    -42.46635645	    -75.85206188	    100.09531437	    -73.16672385	   -150.25576897	     43.35293317	    -20.87902479	     10.31710632	     -0.36497257	    -12.79960035	    -21.32167904	    -34.85964490	     -1.18148352	     60.03480107	    -34.13890919	      0.77359404	     70.94872641	     17.55853816	      2.45942162	    -24.99999983
      5.02000000	     -1.26733295	      2.31768004	     10.66883016	     -0.10066639	      1.03281797	      0.01186192	      9.13569825	     -8.62221939	     16.40685419	     -2.04531375	      0.97192134	     -3.88324894	    -45.82676818	    -75.61544793	     96.92349659	    -72.13542605	   -146.94590781	     45.07132064	    -22.55905948	      9.89790702	      0.08324109	    -11.92752624	    -21.62819834	    -34.51881541	     -1.54806846	     59.78770057	    -34.95832417	     -0.37980770	     70.57659083	     20.27357548	      0.04968193	    -24.99999983
      5.03000000	     -1.19158192	      2.11907837	     10.77147767	     -0.10112253	      1.03282492	      0.01177495	      9.07820492	     -8.40739820	     16.11530432	     -1.69541311	      0.59731966	     -3.82930891	    -46.47933616	    -75.86535200	     96.85782100	    -71.49258842	   -146.75570454	     44.99619113	    -22.59233079	      9.75084683	      0.20323842	    -11.73519521	    -22.01461209	    -35.05298921	     -1.75145975	     59.38614448	    -35.81702352	     -0.37493354	     70.32961135	     20.36855430	     -0.02356520	    -24.99999983
      5.04000000	     -1.05663840	      2.06105925	     10.71300605	     -0.10139261	      1.03299840	      0.01173851	      8.99592561	     -8.23023858	     15.76298086	     -1.36008925	      0.18054820	     -3.72877166	    -46.72572494	    -75.80080576	     96.71468133	    -70.72543343	   -146.62454194	     44.94252593	    -22.61957867	      9.58891140	      0.23524753	    -11.51602139	    -22.26524127	    -35.48426851	     -1.93005494	     59.00741706	    -36.37327287	     -0.43465430	     69.78527568	     20.50715182	     -0.04444958	    -24.99999983
      5.05000000	     -1.19404231	      2.19342790	     10.61323598	     -0.10113623	      1.03285151	      0.01190526	      8.70239563	     -7.96438964	     15.57308661	     -1.41488192	      0.87982947	     -3.78617870	    -49.91664679	    -75.38754503	     93.90349589	    -69.25634592	   -142.89434777	     47.02051912	    -23.93937889	      9.26788120	      0.99275499	    -10.72030054	    -22.76951054	    -34.91592063	     -2.27360172	     58.74936146	    -36.77365211	     -1.43593271	     68.85383345	     23.48685369	     -1.96381108	    -24.99999983
      5.06000000	     -1.07983741	      2.11112643	     10.68272321	     -0.10140270	      1.03292499	      0.01185424	      8.66510658	     -7.86313349	     15.29216879	     -1.13956651	      0.44366526	     -3.68679480	    -50.16005065	    -75.36697480	     93.77284603	    -68.39367170	   -142.82841879	     46.86283554	    -23.95571204	      9.12363355	      0.92533302	    -10.54711124	    -22.92561267	    -35.35924075	     -2.41940306	     58.39043878	    -37.35956189	     -1.43348385	     68.13360358	     23.57062068	     -1.93568567	    -24.99999983
      5.07000000	     -0.98028950	      2.03072284	     10.77535060	     -0.10172827	      1.03295238	      0.01186538	      8.62856339	     -7.79401023	     15.03876680	     -0.91288276	      0.05416454	     -3.58663423	    -50.38820534	    -75.34460753	     93.64557920	    -67.48997737	   -142.69438456	     46.74732498	    -23.95648731	      9.00076190	      0.87442579	    -10.40520234	    -23.06945135	    -35.74994646	     -2.54583458	     58.06094602	    -37.85891157	     -1.50399468	     67.23022825	     23.71528621	     -1.89292332	    -24.99999983
      5.08000000	     -1.08194357	      2.07229858	     10.73954475	     -0.10160539	      1.03267324	      0.01189051	      8.53134693	     -7.64184532	     15.22805723	     -1.10059428	      0.82560643	     -3.76108587	    -53.51617329	    -74.89026170	     90.66495090	    -66.01674202	   -138.77314739	     48.07069376	    -24.91843689	      8.82385973	      1.47521818	     -9.88034503	    -23.41170246	    -35.17806715	     -2.75440348	     57.36621275	    -38.07434058	     -1.78872993	     66.09509369	     26.07306481	     -2.69659113	    -24.99999983
      5.09000000	     -0.98289780	      2.03828897	     10.82349208	     -0.10173725	      1.03259013	      0.01195035	      8.49514976	     -7.61573110	     14.99239345	     -0.92671032	      0.46809977	     -3.65690364	    -53.57335112	    -74.70392670	     90.46110318	    -65.07479846	   -138.75457396	     47.86695526	    -24.93848672	      8.70043715	      1.32669056	     -9.73956624	    -23.43515345	    -35.52171897	     -2.85779466	     57.10408614	    -38.46955167	     -1.77194249	     65.11983243	     26.16256572	     -2.61808494	    -24.99999983
      5.10000000	     -0.90112212	      2.06835161	     10.93193998	     -0.10201521	      1.03267241	      0.01191177	      8.49589858	     -7.66552708	     14.82569465	     -0.82020436	      0.10983966	     -3.55334965	    -53.69593339	    -74.61067166	     90.33073735	    -64.01250216	   -138.64859127	     47.68556885	    -24.92243345	      8.58917235	      1.15898556	     -9.61453231	    -23.40164726	    -35.79056414	     -2.93099616	     56.86683774	    -38.71402820	     -1.77165218	     64.03026553	     26.28905188	     -2.52161301	    -24.99999983
